<svg width="158" height="158" viewBox="0 0 158 158" fill="none" xmlns="http://www.w3.org/2000/svg">
<g filter="url(#filter0_d_186_60)">
<circle cx="79" cy="75" r="75" fill="black"/>
</g>
<g filter="url(#filter1_i_186_60)">
<circle cx="79" cy="75" r="65" fill="url(#paint0_linear_186_60)"/>
</g>
<g filter="url(#filter2_f_186_60)">
<circle cx="79" cy="75" r="60" fill="black"/>
</g>
<g filter="url(#filter3_i_186_60)">
<path d="M65.5095 114H43V36H66.5953C68.7622 36 70.8412 36.1251 72.8322 36.3753C74.4635 36.5803 76.0357 36.8693 77.549 37.2423C80.7556 38.0326 83.6971 39.2001 86.3736 40.7446C88.2577 41.8231 89.9905 43.0641 91.5722 44.4678C92.3508 45.1587 93.0928 45.8891 93.7981 46.6588C95.8281 48.8743 97.5545 51.4161 98.9773 54.2842C101.054 58.4526 102.393 63.206 102.993 68.5443H93.6103C93.1195 64.9745 92.2197 61.7513 90.9109 58.8745C88.8167 54.2456 85.6884 50.6968 81.526 48.228C81.2008 48.0331 80.8693 47.8459 80.5317 47.6662C79.6936 47.2203 78.8171 46.8213 77.9023 46.4692C74.7625 45.2608 71.1705 44.6047 67.1263 44.5009C66.7465 44.4912 66.3627 44.4863 65.9748 44.4863H64.1422H52.6176V105.514H61.0384H63.6975H64.889C68.9933 105.514 72.6583 105.021 75.884 104.037C77.1362 103.655 78.3222 103.198 79.4421 102.668C80.053 102.379 80.6442 102.067 81.2157 101.733C85.5333 99.2132 88.7521 95.6258 90.8721 90.9712C92.3166 87.7998 93.269 84.2165 93.7293 80.2213H103.091C102.544 85.9974 101.16 91.1237 98.9385 95.6001C97.6491 98.1878 96.1023 100.515 94.2982 102.581C93.3861 103.625 92.4084 104.603 91.3648 105.514C89.7543 106.92 87.9871 108.167 86.0633 109.255C83.2452 110.837 80.1234 112.023 76.6977 112.814C74.977 113.211 73.1796 113.508 71.3056 113.706C69.4488 113.902 67.5168 114 65.5095 114Z" fill="white"/>
<path d="M104.704 70.7169H87.5432C84.6475 70.7169 82.0363 70.151 79.7095 69.0195C77.3568 67.888 75.4953 66.2936 74.125 64.2363C72.7289 62.179 72.0309 59.7617 72.0309 56.9844C72.0309 53.5127 73.246 50.5682 75.6762 48.1509C75.7157 48.1112 75.7556 48.0718 75.7958 48.0328C72.9555 47.1281 69.6918 46.6588 65.9749 46.6588H65.4031C63.7201 49.7683 62.8786 53.2102 62.8786 56.9844C62.8786 60.3789 63.4861 63.182 64.7013 65.3936C65.8906 67.6051 67.4676 69.3538 69.4325 70.6396C71.3716 71.9255 73.4787 72.877 75.7538 73.4941V74.2656C73.3235 74.4199 70.8804 75.2686 68.4242 76.8115C65.9681 78.3545 63.9127 79.5661 62.2581 82.4463C60.6034 85.3265 59.7761 88.8496 59.7761 93.0156C59.7761 96.8266 60.614 100.268 62.2899 103.341H64.889C68.1009 103.341 70.9836 103.027 73.5541 102.417C73.3332 102.247 73.1228 102.071 72.9228 101.888C70.2599 99.4447 68.9284 96.4873 68.9284 93.0156C68.9284 90.3411 69.6135 87.8724 70.9838 85.6094C72.354 83.3206 74.306 81.4948 76.8397 80.1318C79.3734 78.7432 82.3724 78.0489 85.8368 78.0489H105.382V79.0134V105.514H94.5443C92.3817 107.698 89.9138 109.576 87.1432 111.144L87.1366 111.147C85.2846 112.187 83.319 113.062 81.2426 113.775C82.8337 113.925 84.5202 114 86.3022 114H115V36H87.2329C85.377 36 83.6301 36.1071 81.9923 36.3212C83.9113 37.0192 85.7367 37.8657 87.4661 38.8635C90.1881 40.4219 92.6141 42.2984 94.7428 44.4863H105.382V70.6891L104.704 70.7169Z" fill="#BE75FF"/>
</g>
<g filter="url(#filter4_i_186_60)">
<path d="M65.5095 114H43V36H66.5953C68.7622 36 70.8412 36.1251 72.8322 36.3753C74.4635 36.5803 76.0357 36.8693 77.549 37.2423C80.7556 38.0326 83.6971 39.2001 86.3736 40.7446C88.2577 41.8231 89.9905 43.0641 91.5722 44.4678C92.3508 45.1587 93.0928 45.8891 93.7981 46.6588C95.8281 48.8743 97.5545 51.4161 98.9773 54.2842C101.054 58.4526 102.393 63.206 102.993 68.5443H93.6103C93.1195 64.9745 92.2197 61.7513 90.9109 58.8745C88.8167 54.2456 85.6884 50.6968 81.526 48.228C81.2008 48.0331 80.8693 47.8459 80.5317 47.6662C79.6936 47.2203 78.8171 46.8213 77.9023 46.4692C74.7625 45.2608 71.1705 44.6047 67.1263 44.5009C66.7465 44.4912 66.3627 44.4863 65.9748 44.4863H64.1422H52.6176V105.514H61.0384H63.6975H64.889C68.9933 105.514 72.6583 105.021 75.884 104.037C77.1362 103.655 78.3222 103.198 79.4421 102.668C80.053 102.379 80.6442 102.067 81.2157 101.733C85.5333 99.2132 88.7521 95.6258 90.8721 90.9712C92.3166 87.7998 93.269 84.2165 93.7293 80.2213H103.091C102.544 85.9974 101.16 91.1237 98.9385 95.6001C97.6491 98.1878 96.1023 100.515 94.2982 102.581C93.3861 103.625 92.4084 104.603 91.3648 105.514C89.7543 106.92 87.9871 108.167 86.0633 109.255C83.2452 110.837 80.1234 112.023 76.6977 112.814C74.977 113.211 73.1796 113.508 71.3056 113.706C69.4488 113.902 67.5168 114 65.5095 114Z" fill="url(#paint1_linear_186_60)"/>
<path d="M104.704 70.7169H87.5432C84.6475 70.7169 82.0363 70.151 79.7095 69.0195C77.3568 67.888 75.4953 66.2936 74.125 64.2363C72.7289 62.179 72.0309 59.7617 72.0309 56.9844C72.0309 53.5127 73.246 50.5682 75.6762 48.1509C75.7157 48.1112 75.7556 48.0718 75.7958 48.0328C72.9555 47.1281 69.6918 46.6588 65.9749 46.6588H65.4031C63.7201 49.7683 62.8786 53.2102 62.8786 56.9844C62.8786 60.3789 63.4861 63.182 64.7013 65.3936C65.8906 67.6051 67.4676 69.3538 69.4325 70.6396C71.3716 71.9255 73.4787 72.877 75.7538 73.4941V74.2656C73.3235 74.4199 70.8804 75.2686 68.4242 76.8115C65.9681 78.3545 63.9127 79.5661 62.2581 82.4463C60.6034 85.3265 59.7761 88.8496 59.7761 93.0156C59.7761 96.8266 60.614 100.268 62.2899 103.341H64.889C68.1009 103.341 70.9836 103.027 73.5541 102.417C73.3332 102.247 73.1228 102.071 72.9228 101.888C70.2599 99.4447 68.9284 96.4873 68.9284 93.0156C68.9284 90.3411 69.6135 87.8724 70.9838 85.6094C72.354 83.3206 74.306 81.4948 76.8397 80.1318C79.3734 78.7432 82.3724 78.0489 85.8368 78.0489H105.382V79.0134V105.514H94.5443C92.3817 107.698 89.9138 109.576 87.1432 111.144L87.1366 111.147C85.2846 112.187 83.319 113.062 81.2426 113.775C82.8337 113.925 84.5202 114 86.3022 114H115V36H87.2329C85.377 36 83.6301 36.1071 81.9923 36.3212C83.9113 37.0192 85.7367 37.8657 87.4661 38.8635C90.1881 40.4219 92.6141 42.2984 94.7428 44.4863H105.382V70.6891L104.704 70.7169Z" fill="url(#paint2_linear_186_60)"/>
</g>
<defs>
<filter id="filter0_d_186_60" x="0" y="0" width="158" height="158" filterUnits="userSpaceOnUse" color-interpolation-filters="sRGB">
<feFlood flood-opacity="0" result="BackgroundImageFix"/>
<feColorMatrix in="SourceAlpha" type="matrix" values="0 0 0 0 0 0 0 0 0 0 0 0 0 0 0 0 0 0 127 0" result="hardAlpha"/>
<feOffset dy="4"/>
<feGaussianBlur stdDeviation="2"/>
<feComposite in2="hardAlpha" operator="out"/>
<feColorMatrix type="matrix" values="0 0 0 0 0 0 0 0 0 0 0 0 0 0 0 0 0 0 0.25 0"/>
<feBlend mode="normal" in2="BackgroundImageFix" result="effect1_dropShadow_186_60"/>
<feBlend mode="normal" in="SourceGraphic" in2="effect1_dropShadow_186_60" result="shape"/>
</filter>
<filter id="filter1_i_186_60" x="14" y="10" width="130" height="134" filterUnits="userSpaceOnUse" color-interpolation-filters="sRGB">
<feFlood flood-opacity="0" result="BackgroundImageFix"/>
<feBlend mode="normal" in="SourceGraphic" in2="BackgroundImageFix" result="shape"/>
<feColorMatrix in="SourceAlpha" type="matrix" values="0 0 0 0 0 0 0 0 0 0 0 0 0 0 0 0 0 0 127 0" result="hardAlpha"/>
<feOffset dy="4"/>
<feGaussianBlur stdDeviation="2"/>
<feComposite in2="hardAlpha" operator="arithmetic" k2="-1" k3="1"/>
<feColorMatrix type="matrix" values="0 0 0 0 0 0 0 0 0 0 0 0 0 0 0 0 0 0 0.25 0"/>
<feBlend mode="normal" in2="shape" result="effect1_innerShadow_186_60"/>
</filter>
<filter id="filter2_f_186_60" x="9" y="5" width="140" height="140" filterUnits="userSpaceOnUse" color-interpolation-filters="sRGB">
<feFlood flood-opacity="0" result="BackgroundImageFix"/>
<feBlend mode="normal" in="SourceGraphic" in2="BackgroundImageFix" result="shape"/>
<feGaussianBlur stdDeviation="5" result="effect1_foregroundBlur_186_60"/>
</filter>
<filter id="filter3_i_186_60" x="43" y="36" width="72" height="80" filterUnits="userSpaceOnUse" color-interpolation-filters="sRGB">
<feFlood flood-opacity="0" result="BackgroundImageFix"/>
<feBlend mode="normal" in="SourceGraphic" in2="BackgroundImageFix" result="shape"/>
<feColorMatrix in="SourceAlpha" type="matrix" values="0 0 0 0 0 0 0 0 0 0 0 0 0 0 0 0 0 0 127 0" result="hardAlpha"/>
<feOffset dy="2"/>
<feGaussianBlur stdDeviation="2.5"/>
<feComposite in2="hardAlpha" operator="arithmetic" k2="-1" k3="1"/>
<feColorMatrix type="matrix" values="0 0 0 0 0 0 0 0 0 0 0 0 0 0 0 0 0 0 0.25 0"/>
<feBlend mode="normal" in2="shape" result="effect1_innerShadow_186_60"/>
</filter>
<filter id="filter4_i_186_60" x="43" y="36" width="72" height="80" filterUnits="userSpaceOnUse" color-interpolation-filters="sRGB">
<feFlood flood-opacity="0" result="BackgroundImageFix"/>
<feBlend mode="normal" in="SourceGraphic" in2="BackgroundImageFix" result="shape"/>
<feColorMatrix in="SourceAlpha" type="matrix" values="0 0 0 0 0 0 0 0 0 0 0 0 0 0 0 0 0 0 127 0" result="hardAlpha"/>
<feOffset dy="2"/>
<feGaussianBlur stdDeviation="2.5"/>
<feComposite in2="hardAlpha" operator="arithmetic" k2="-1" k3="1"/>
<feColorMatrix type="matrix" values="0 0 0 0 0 0 0 0 0 0 0 0 0 0 0 0 0 0 0.25 0"/>
<feBlend mode="normal" in2="shape" result="effect1_innerShadow_186_60"/>
</filter>
<linearGradient id="paint0_linear_186_60" x1="14" y1="10" x2="144" y2="140" gradientUnits="userSpaceOnUse">
<stop stop-color="#FF0000"/>
<stop offset="1" stop-color="#8700FF"/>
</linearGradient>
<linearGradient id="paint1_linear_186_60" x1="43" y1="39" x2="115" y2="111" gradientUnits="userSpaceOnUse">
<stop stop-color="#FF0000"/>
<stop offset="1" stop-color="#8700FF"/>
</linearGradient>
<linearGradient id="paint2_linear_186_60" x1="43" y1="39" x2="115" y2="111" gradientUnits="userSpaceOnUse">
<stop stop-color="#FF0000"/>
<stop offset="1" stop-color="#8700FF"/>
</linearGradient>
</defs>
</svg>
