<svg width="87" height="96" viewBox="0 0 87 96" fill="none" xmlns="http://www.w3.org/2000/svg">
    <path
        d="M26.4681 5.28562C28.4415 5.28562 30.3069 5.35118 32.0642 5.4823C34.6199 3.71966 37.7944 2.3056 41.5637 1.22252C37.2243 0.407507 32.3467 0 26.9309 0H0.222656V96H25.9393C31.3279 96 36.1675 95.57 40.458 94.7099L40.4545 94.7088L40.4466 94.7062C36.9068 93.5759 33.8357 92.1807 31.2484 90.5106C29.3123 90.6465 27.2561 90.7144 25.0798 90.7144H13.114V5.28562H26.4681Z"
        fill="white" />
    <path
        d="M52.5814 81.7949C50.626 84.279 48.135 86.2027 45.1081 87.566C46.1394 88.0102 47.2845 88.3835 48.5472 88.683C50.3351 89.087 52.3903 89.3743 54.7166 89.5413C55.1374 89.2998 55.5495 89.0522 55.9529 88.7983C59.5228 86.5079 62.4537 83.8211 64.7455 80.7378C67.0814 77.6105 68.9324 74.2409 70.2987 70.629C71.5482 67.2856 72.4475 63.7948 72.9966 60.1567V49.8259H63.6608C62.2514 49.8259 60.9092 49.8492 59.6341 49.8955C59.5264 57.2308 59.0045 63.3932 58.0684 68.3827C57.0107 74.0207 55.1817 78.4914 52.5814 81.7949Z"
        fill="white" />
    <path
        d="M63.82 12.7515C61.6537 10.3258 59.0702 8.23211 56.0694 6.47052C53.7481 6.64801 51.7545 6.95213 50.0825 7.37788L50.0741 7.38004L50.0656 7.38204C48.4701 7.75881 47.0967 8.24699 45.933 8.83755C46.5224 9.13276 47.0858 9.44638 47.6231 9.77839C50.0912 11.276 52.0966 13.17 53.6391 15.4604C55.2257 17.7509 56.4598 20.4377 57.3412 23.521C58.2227 26.6043 58.8177 30.106 59.1262 34.0262C59.3596 36.6209 59.5157 39.3892 59.5946 42.3313C61.6228 42.4702 63.8336 42.5403 66.2283 42.5403H72.9966V33.8027C72.6354 31.6131 72.1769 29.5072 71.6209 27.4852C70.0783 21.7151 67.478 16.8039 63.82 12.7515Z"
        fill="white" />
    <path fill-rule="evenodd" clip-rule="evenodd"
        d="M40.7508 93.7536C37.7912 92.8085 35.1862 91.6814 32.9359 90.3721C31.5154 89.5457 30.2362 88.6467 29.0983 87.6752C26.1578 85.1645 24.073 82.3014 22.8441 79.086C21.6153 75.8266 21.0008 72.479 21.0008 69.0434C21.0008 66.0922 21.4397 63.3393 22.3175 60.7846C23.1953 58.2299 24.6216 55.9394 26.5966 53.9133C28.5278 51.8871 31.0514 50.1913 34.1675 48.8259C37.2397 47.4164 40.9703 46.3813 45.3591 45.7206V45.4563C41.6286 44.5313 38.4466 43.298 35.8133 41.7564C33.1361 40.2147 30.9636 38.4308 29.2958 36.4047C27.5841 34.3785 26.3333 32.1982 25.5433 29.8637C24.7533 27.4852 24.3583 25.0186 24.3583 22.4639C24.3583 19.2925 24.9947 16.3414 26.2675 13.6105C27.4964 10.8796 29.5372 8.50103 32.39 6.47488C32.802 6.18225 33.2323 5.89879 33.681 5.62453C36.3386 3.99987 39.6389 2.69764 43.5816 1.71783C43.6364 1.70422 43.6913 1.69069 43.7463 1.67724C48.3241 0.559076 53.909 0 60.5008 0H86.8342V96H58.855C52.4707 96 47.0245 95.418 42.5163 94.254C41.9109 94.0977 41.3223 93.9309 40.7508 93.7536ZM53.1163 90.4082C55.1642 90.6123 57.4282 90.7144 59.9083 90.7144H73.9966V48.8259H63.6608C62.2593 48.8259 60.9211 48.8487 59.6461 48.8944C55.6108 49.0391 52.209 49.4127 49.4408 50.0151C45.7541 50.808 42.8794 52.0413 40.8166 53.7151C38.71 55.3889 37.2836 57.5251 36.5375 60.1239C35.7475 62.6786 35.3525 65.7619 35.3525 69.3737C35.3525 73.382 35.7694 76.7515 36.6033 79.4825C37.4372 82.1693 38.8197 84.3496 40.7508 86.0234C41.643 86.8147 42.6774 87.5026 43.854 88.0871C45.1663 88.7391 46.6555 89.2625 48.3216 89.6573C48.5015 89.698 48.6839 89.7375 48.8687 89.7758C50.1628 90.0441 51.5786 90.2549 53.1163 90.4082ZM59.6184 43.3352C61.6491 43.4719 63.8524 43.5403 66.2283 43.5403H73.9966V5.28562H61.3566C58.8184 5.28562 56.5381 5.39298 54.5158 5.6077C52.7617 5.79396 51.2017 6.06099 49.8358 6.40881C47.8759 6.87162 46.1999 7.5054 44.8078 8.31015C44.0801 8.73081 43.43 9.19822 42.8575 9.71232C41.1897 11.1659 40.0486 13.0158 39.4341 15.2622C38.8197 17.4646 38.5125 20.0633 38.5125 23.0585C38.5125 26.9787 38.9733 30.2602 39.895 32.903C40.8166 35.5017 42.3528 37.5939 44.5033 39.1796C46.6539 40.7653 49.5066 41.8885 53.0616 42.5492C54.9995 42.9094 57.185 43.1713 59.6184 43.3352Z"
        fill="#BE75FF" />
    <path
        d="M73.9988 46.8437C73.9988 39.7081 73.2055 33.2552 71.6188 27.4851L59.1242 34.0261C59.4767 37.9462 59.653 42.2628 59.653 46.9758C59.653 55.609 59.1242 62.7446 58.0664 68.3826L73.1394 59.1327C73.7123 55.0804 73.9988 50.9841 73.9988 46.8437Z"
        fill="white" />
</svg>