<svg width="12" height="9" viewBox="0 0 12 9" fill="none" xmlns="http://www.w3.org/2000/svg">
<path d="M11.6172 0.0117188C10.9609 0.0351562 10.2773 0.046875 9.56641 0.046875C9.23047 0.046875 8.91016 0.0390625 8.60547 0.0234375C8.30078 0.0078125 8.14453 0 8.13672 0C7.92578 0 7.73242 0.00585938 7.55664 0.0175781C7.37695 0.0253906 7.17578 0.0449219 6.95312 0.0761719C6.72656 0.107422 6.52539 0.150391 6.34961 0.205078C6.17383 0.259766 5.99805 0.335938 5.82227 0.433594C5.64258 0.53125 5.49414 0.646484 5.37695 0.779297C5.25586 0.912109 5.1582 1.07617 5.08398 1.27148C5.00977 1.4668 4.97266 1.68555 4.97266 1.92773C4.97266 2.64258 5.40039 3.17969 6.25586 3.53906V3.58594C5.61523 3.70312 5.08008 3.96875 4.65039 4.38281C4.2168 4.79688 4 5.32617 4 5.9707C4 6.31445 4.0625 6.625 4.1875 6.90234C4.30859 7.17578 4.46484 7.40234 4.65625 7.58203C4.84766 7.76172 5.08789 7.91797 5.37695 8.05078C5.66602 8.18359 5.94727 8.28516 6.2207 8.35547C6.49414 8.42578 6.80859 8.48242 7.16406 8.52539C7.51562 8.56445 7.81641 8.58984 8.06641 8.60156C8.31641 8.60938 8.5957 8.61328 8.9043 8.61328C9.96289 8.61328 10.8711 8.625 11.6289 8.64844C11.6445 8.60156 11.6523 8.5625 11.6523 8.53125C11.6523 8.50391 11.6445 8.45117 11.6289 8.37305C11.5117 8.36133 11.418 8.35156 11.3477 8.34375C11.2773 8.33594 11.1816 8.32227 11.0605 8.30273C10.9355 8.2832 10.8359 8.26172 10.7617 8.23828C10.6836 8.21094 10.6035 8.17773 10.5215 8.13867C10.4395 8.09961 10.3789 8.05273 10.3398 7.99805C10.2969 7.94336 10.2754 7.88086 10.2754 7.81055C10.2285 6.58789 10.2051 5.35547 10.2051 4.11328C10.2051 2.84766 10.2246 1.75586 10.2637 0.837891C10.2676 0.736328 10.3125 0.650391 10.3984 0.580078C10.4805 0.509766 10.6055 0.455078 10.7734 0.416016C10.9414 0.376953 11.0762 0.351562 11.1777 0.339844C11.2793 0.324219 11.4258 0.306641 11.6172 0.287109C11.6328 0.216797 11.6406 0.167969 11.6406 0.140625C11.6406 0.117188 11.6328 0.0742188 11.6172 0.0117188ZM8.96875 4.11328V4.54688L8.9043 8.21484C8.64258 8.21484 8.41016 8.21094 8.20703 8.20312C8.00391 8.19141 7.78125 8.16797 7.53906 8.13281C7.29688 8.09375 7.08594 8.04297 6.90625 7.98047C6.72656 7.91797 6.54688 7.83203 6.36719 7.72266C6.1875 7.60938 6.04102 7.47656 5.92773 7.32422C5.81445 7.17188 5.72266 6.98438 5.65234 6.76172C5.58203 6.53516 5.54688 6.28125 5.54688 6C5.54688 5.72656 5.5918 5.48242 5.68164 5.26758C5.77148 5.04883 5.89844 4.86719 6.0625 4.72266C6.22266 4.57422 6.41992 4.45117 6.6543 4.35352C6.88477 4.25586 7.13672 4.18555 7.41016 4.14258C7.67969 4.09961 7.97461 4.07812 8.29492 4.07812C8.51758 4.07812 8.74219 4.08984 8.96875 4.11328ZM8.89258 0.416016L8.96875 3.75586C7.375 3.75586 6.57812 3.14648 6.57812 1.92773C6.57812 1.39648 6.74414 1.00586 7.07617 0.755859C7.4043 0.505859 7.8418 0.380859 8.38867 0.380859C8.50977 0.380859 8.67773 0.392578 8.89258 0.416016Z" fill="black"/>
<path d="M0.535156 0C1.41016 0.03125 2.10938 0.046875 2.63281 0.046875C3.60938 0.015625 4.20898 0 4.43164 0C4.79492 0 5.13672 0.015625 5.45703 0.046875C5.77734 0.078125 6.10742 0.136719 6.44727 0.222656C6.79102 0.304688 7.10156 0.414062 7.37891 0.550781C7.65625 0.683594 7.92188 0.861328 8.17578 1.08398C8.42969 1.30664 8.64258 1.56445 8.81445 1.85742C8.98633 2.15039 9.12305 2.50391 9.22461 2.91797C9.32617 3.32812 9.37695 3.7832 9.37695 4.2832C9.3457 4.76367 9.26172 5.20508 9.125 5.60742C8.99219 6.00977 8.82031 6.35742 8.60938 6.65039C8.40234 6.94336 8.15625 7.20508 7.87109 7.43555C7.58594 7.66602 7.28711 7.85352 6.97461 7.99805C6.66602 8.14258 6.33008 8.26172 5.9668 8.35547C5.60742 8.44922 5.25586 8.51562 4.91211 8.55469C4.57227 8.59375 4.2207 8.61328 3.85742 8.61328C2.39258 8.61328 1.28125 8.625 0.523438 8.64844C0.507812 8.60156 0.5 8.5625 0.5 8.53125C0.5 8.50391 0.507812 8.45117 0.523438 8.37305C0.640625 8.36133 0.734375 8.35156 0.804688 8.34375C0.875 8.33594 0.970703 8.32227 1.0918 8.30273C1.2168 8.2832 1.31641 8.26172 1.39062 8.23828C1.46875 8.21094 1.54883 8.17773 1.63086 8.13867C1.71289 8.09961 1.77344 8.05273 1.8125 7.99805C1.85547 7.94336 1.87695 7.88086 1.87695 7.81055C1.92383 6.58789 1.94727 5.35547 1.94727 4.11328C1.94727 2.84766 1.92773 1.75586 1.88867 0.837891C1.88477 0.736328 1.83984 0.650391 1.75391 0.580078C1.66797 0.505859 1.54297 0.449219 1.37891 0.410156C1.21875 0.371094 1.08203 0.34375 0.96875 0.328125C0.859375 0.308594 0.714844 0.291016 0.535156 0.275391C0.519531 0.205078 0.511719 0.15625 0.511719 0.128906C0.511719 0.105469 0.519531 0.0625 0.535156 0ZM3.25977 0.837891C3.20898 2.16602 3.18359 3.40234 3.18359 4.54688C3.18359 5.17969 3.20508 6.39062 3.24805 8.17969C3.41602 8.1875 3.65625 8.19141 3.96875 8.19141C4.60156 8.19141 5.16406 8.0957 5.65625 7.9043C6.14844 7.70898 6.55273 7.4375 6.86914 7.08984C7.18555 6.74219 7.42383 6.33203 7.58398 5.85938C7.74805 5.38281 7.83008 4.85742 7.83008 4.2832C7.83008 3.98633 7.80664 3.69531 7.75977 3.41016C7.71289 3.125 7.63867 2.83398 7.53711 2.53711C7.43555 2.24023 7.29492 1.9668 7.11523 1.7168C6.93555 1.4668 6.7207 1.24414 6.4707 1.04883C6.22461 0.849609 5.91992 0.695312 5.55664 0.585938C5.19727 0.472656 4.79883 0.416016 4.36133 0.416016C3.95898 0.416016 3.5918 0.441406 3.25977 0.492188V0.837891Z" fill="white"/>
<path d="M5.37695 8.05078C5.08789 7.91797 4.84766 7.76172 4.65625 7.58203L5.92773 7.32422C6.04102 7.47656 6.1875 7.60938 6.36719 7.72266C6.54688 7.83203 6.72656 7.91797 6.90625 7.98047C7.08594 8.04297 7.29688 8.09375 7.53906 8.13281L6.2207 8.35547C5.94727 8.28516 5.66602 8.18359 5.37695 8.05078Z" fill="black"/>
<path d="M5.82227 0.433594C5.99805 0.335938 6.17383 0.259766 6.34961 0.205078L8.38867 0.380859C7.8418 0.380859 7.4043 0.505859 7.07617 0.755859C6.74414 1.00586 6.57812 1.39648 6.57812 1.92773H4.97266C4.97266 1.68555 5.00977 1.4668 5.08398 1.27148C5.1582 1.07617 5.25586 0.912109 5.37695 0.779297C5.49414 0.646484 5.64258 0.53125 5.82227 0.433594Z" fill="black"/>
</svg>
