<svg width="114" height="98" viewBox="0 0 114 98" fill="none" xmlns="http://www.w3.org/2000/svg">
<path d="M0 97V91.7144H13.2219V6.28562H0V1H39.9301C48.8328 1 56.2812 2.10117 62.2751 4.30351C68.3131 6.50585 73.1611 9.6552 76.8191 13.7515C80.4772 17.8039 83.0775 22.7151 84.6201 28.4852C86.2067 34.2553 87 40.7082 87 47.8438C87 51.9842 86.7135 56.0805 86.1406 60.1328C85.6117 64.1411 84.6641 67.9732 83.2979 71.629C81.9316 75.2409 80.0805 78.6105 77.7447 81.7378C75.4529 84.8211 72.522 87.5079 68.9521 89.7983C65.3822 92.0447 61.1292 93.8066 56.193 95.084C51.2568 96.3613 45.5053 97 38.9384 97H0ZM26.1132 91.7144H38.079C44.8663 91.7144 50.4856 91.0537 54.9369 89.7323C59.4324 88.4109 62.9802 86.0984 65.5805 82.7949C68.1809 79.4914 70.0099 75.0206 71.0676 69.3827C72.1254 63.7447 72.6543 56.6091 72.6543 47.9759C72.6543 43.2629 72.478 38.9463 72.1254 35.0262C71.8169 31.106 71.2219 27.6043 70.3404 24.521C69.459 21.4377 68.2249 18.7509 66.6383 16.4604C65.0957 14.17 63.0904 12.276 60.6223 10.7784C58.1983 9.2808 55.2454 8.15761 51.7637 7.40881C48.2819 6.66001 44.1831 6.28562 39.4673 6.28562H26.1132V91.7144Z" fill="white"/>
<path d="M35.3763 80.2645L35.3755 80.2624C34.1256 76.9474 33.5 73.5401 33.5 70.0434C33.5 67.042 33.9465 64.2337 34.8438 61.6221C35.7465 58.9949 37.2129 56.6421 39.2361 54.566C41.2206 52.4846 43.801 50.7552 46.9622 49.3696C49.6814 48.1225 52.8944 47.1694 56.595 46.5045C53.5255 45.6298 50.8458 44.526 48.5612 43.1886C45.8428 41.6231 43.6225 39.8034 41.911 37.725C40.163 35.6553 38.8802 33.4214 38.0689 31.024L38.068 31.0213C37.2608 28.591 36.8575 26.0711 36.8575 23.4639C36.8575 20.2247 37.5077 17.2021 38.812 14.4025C40.0832 11.5789 42.1877 9.13543 45.0996 7.06723C48.018 4.99448 51.8115 3.38783 56.4602 2.23258C61.1203 1.07451 66.8032 0.5 73.5 0.5H113H113.5V1V6.28562V6.78562H113H100.333V91.2144H113H113.5V91.7144V97V97.5H113H71.8542C64.5821 97.5 58.4934 96.7485 53.6019 95.2312L53.5979 95.2299C48.7255 93.674 44.777 91.6204 41.7728 89.0554C38.7767 86.4973 36.6385 83.5673 35.3763 80.2645ZM54.0775 86.6455L54.0818 86.6493C55.8914 88.2543 58.3325 89.4349 61.4333 90.1701C64.5008 90.8636 68.3226 91.2144 72.9075 91.2144H86.4958V50.3259H76.66C70.8409 50.3259 66.1404 50.7215 62.5463 51.5037L62.5451 51.504C58.9052 52.2868 56.1124 53.4955 54.1309 55.1034L54.1269 55.1066C52.1022 56.7152 50.7348 58.7627 50.0173 61.2619L50.0174 61.2619L50.0144 61.2716C49.2433 63.765 48.8517 66.7956 48.8517 70.3737C48.8517 74.35 49.2656 77.6663 50.0802 80.3348C50.8894 82.9417 52.2239 85.039 54.0775 86.6455ZM52.9156 16.3941L52.9149 16.3966C52.3158 18.5441 52.0117 21.0955 52.0117 24.0585C52.0117 27.9427 52.4687 31.164 53.3659 33.7371C54.2553 36.2444 55.7321 38.253 57.7992 39.7772C59.8714 41.3051 62.6466 42.4061 66.1522 43.0576C69.667 43.7109 74.0231 44.0403 79.2275 44.0403H86.4958V6.78562H74.3558C69.637 6.78562 65.8427 7.15888 62.9584 7.89335L62.9584 7.89342L62.9499 7.89543C60.0184 8.58769 57.7775 9.6595 56.1907 11.0843L56.1908 11.0844L56.1852 11.0893C54.5957 12.4746 53.5055 14.2375 52.9156 16.3941Z" fill="black" stroke="white"/>
<path d="M87 47.8438C87 40.7082 86.2067 34.2553 84.6201 28.4852L72.1254 35.0261C72.478 38.9463 72.6543 43.2629 72.6543 47.9759C72.6543 56.6091 72.1254 63.7447 71.0676 69.3827L86.1406 60.1328C86.7135 56.0805 87 51.9842 87 47.8438Z" fill="white"/>
</svg>
