<?xml version="1.0" encoding="UTF-8"?>
<svg id="Livello_2" data-name="Livello 2" xmlns="http://www.w3.org/2000/svg" viewBox="0 0 262.5 262.5">
  <defs>
    <style>
      .cls-1 {
        fill: #fff;
        stroke-width: 0px;
      }
    </style>
  </defs>
  <g id="Livello_1-2" data-name="Livello 1">
    <g>
      <path class="cls-1" d="M84.38,37.5L103.12,0h-9.38l-18.75,37.5h9.38Z"/>
      <path class="cls-1" d="M65.62,37.5L84.38,0H9.38C4.2,0,0,4.2,0,9.38v28.12h65.62ZM46.88,9.38c5.18,0,9.38,4.2,9.38,9.38s-4.2,9.38-9.38,9.38-9.38-4.2-9.38-9.38,4.2-9.38,9.38-9.38ZM18.75,9.38c5.18,0,9.38,4.2,9.38,9.38s-4.2,9.38-9.38,9.38-9.38-4.2-9.38-9.38,4.2-9.38,9.38-9.38Z"/>
      <path class="cls-1" d="M262.5,37.5V9.38c0-5.18-4.2-9.38-9.38-9.38H112.5l-18.75,37.5h168.75Z"/>
      <path class="cls-1" d="M0,46.88v206.25c0,5.18,4.2,9.38,9.38,9.38h243.75c5.18,0,9.38-4.2,9.38-9.38V46.88H0ZM131.25,65.62c15.53,0,28.12,12.6,28.12,28.12,0,13.92-10.15,25.41-23.44,27.66v19.22h-9.38v-19.22c-13.29-2.25-23.44-13.73-23.44-27.66,0-15.53,12.6-28.12,28.12-28.12ZM46.88,168.75v-46.88h-14.06c-1.63,0-3.13-.84-3.98-2.24s-.94-3.12-.21-4.58l18.75-37.67c1.59-3.19,6.8-3.19,8.39,0l18.75,37.67c.73,1.45.64,3.19-.21,4.58s-2.36,2.24-3.98,2.24h-14.06v46.88h37.5v9.38h-37.5c-5.18,0-9.38-4.2-9.38-9.38h0ZM178.12,243.75h-93.75v-9.38c0-15.5,12.62-28.12,28.12-28.12h18.75c-15.5,0-28.12-12.62-28.12-28.12s12.62-28.12,28.12-28.12,28.12,12.62,28.12,28.12-12.62,28.12-28.12,28.12h18.75c15.5,0,28.12,12.62,28.12,28.12v9.38ZM234.38,112.5c0,5.18-4.2,9.38-9.38,9.38h-9.38v46.88c0,5.18-4.2,9.38-9.38,9.38h-37.5v-9.38h37.5v-46.88h-9.38c-5.18,0-9.38-4.2-9.38-9.38v-28.12c0-5.18,4.2-9.38,9.38-9.38h28.12c5.18,0,9.38,4.2,9.38,9.38v28.12Z"/>
      <path class="cls-1" d="M150,93.75c0,10.36-8.39,18.75-18.75,18.75s-18.75-8.39-18.75-18.75,8.39-18.75,18.75-18.75,18.75,8.39,18.75,18.75"/>
      <path class="cls-1" d="M196.88,84.38h28.12v28.12h-28.12v-28.12Z"/>
      <path class="cls-1" d="M42.19,112.5h18.75l-9.38-23.44-9.38,23.44Z"/>
    </g>
  </g>
</svg>