<?xml version="1.0" encoding="UTF-8"?>
<svg id="Livello_2" data-name="Livello 2" xmlns="http://www.w3.org/2000/svg" viewBox="0 0 300.04 300.04">
  <defs>
    <style>
      .cls-1 {
        fill: #fff;
        fill-rule: evenodd;
        stroke-width: 0px;
      }
    </style>
  </defs>
  <g id="Livello_1-2" data-name="Livello 1">
    <path class="cls-1" d="M73.75,192.05c0-8.71,3.45-17.43,10.12-24.11s15.4-9.93,24.11-9.93,17.43,3.25,24.11,9.93,9.93,15.4,9.93,24.11-3.25,17.43-9.93,24.11-15.4,10.12-24.11,10.12-17.43-3.45-24.11-10.12-10.12-15.4-10.12-24.11ZM94.61,178.67c-3.84,3.64-5.67,8.51-5.67,13.37s1.83,9.73,5.67,13.37c3.64,3.84,8.51,5.67,13.37,5.67s9.73-1.83,13.37-5.67c3.64-3.64,5.47-8.51,5.47-13.37s-1.83-9.73-5.47-13.37c-3.64-3.64-8.51-5.67-13.37-5.67s-9.73,2.03-13.37,5.67ZM35.47,232.36l10.73-10.73,32.2,32.2-10.73,10.73-32.2-32.2ZM179.49,208.45c6.48-19.85,8.51-40.51,4.66-60.17l50.85-50.85,18.84-2.64c1.83-.2,3.45-1.01,4.86-2.23l35.25-35.25c4.05-4.05,6.08-9.52,6.08-14.99s-2.03-10.73-6.08-14.79l-21.47-21.47c-4.05-4.05-9.52-6.08-14.79-6.08s-10.93,2.03-14.99,6.08l-35.25,35.25c-1.01,1.22-1.83,2.64-2.03,4.25l-2.84,19.44-50.85,50.85c-19.65-3.84-40.31-1.83-60.17,4.66-23.5,7.7-45.98,21.88-64.42,40.11C9.15,178.67.64,198.74.03,218.38c-.61,21.07,8.1,41.32,24.11,57.53,16.21,16.01,36.46,24.71,57.53,24.11,19.65-.61,39.7-9.12,57.73-27.14,18.23-18.43,32.42-40.92,40.11-64.42h0Z"/>
  </g>
</svg>