<svg width="30" height="13" viewBox="0 0 30 13" fill="none" xmlns="http://www.w3.org/2000/svg">
<path d="M1.77602 11.368C1.56802 11.368 1.38802 11.248 1.23602 11.008C1.08402 10.776 0.976022 10.396 0.912022 9.86802C0.904022 9.82802 0.900021 9.78002 0.900021 9.72402C0.900021 9.66002 0.900021 9.59602 0.900021 9.53202C0.900021 9.26802 0.916022 8.93602 0.948022 8.53602C0.980022 8.12802 1.02002 7.68002 1.06802 7.19202C1.11602 6.70402 1.16002 6.20402 1.20002 5.69202C1.24802 5.17202 1.28802 4.66402 1.32002 4.16802C1.35202 3.67202 1.36802 3.22002 1.36802 2.81202C1.36802 2.30802 1.33602 1.90002 1.27202 1.58802C1.20802 1.27602 1.09202 1.12002 0.924022 1.12002C0.820022 1.12002 0.716022 1.18002 0.612022 1.30002C0.516021 1.41202 0.428022 1.54002 0.348022 1.68402C0.276022 1.82002 0.216021 1.93202 0.168021 2.02002C0.128021 2.10002 0.104021 2.11202 0.0960215 2.05602C0.0880215 2.02402 0.0800215 1.99602 0.0720215 1.97202C0.0720215 1.94002 0.0720215 1.90802 0.0720215 1.87602C0.0720215 1.72402 0.108021 1.56402 0.180021 1.39602C0.252021 1.22802 0.352021 1.08802 0.480022 0.97602C0.608021 0.85602 0.752021 0.796021 0.912022 0.796021C0.944022 0.796021 0.972022 0.80002 0.996022 0.80802C1.02002 0.80802 1.04402 0.81202 1.06802 0.82002C1.38002 0.90002 1.59202 1.15602 1.70402 1.58802C1.81602 2.02002 1.87202 2.54402 1.87202 3.16002C1.87202 3.62402 1.84802 4.11602 1.80002 4.63602C1.76002 5.15602 1.71202 5.68002 1.65602 6.20802C1.60802 6.72802 1.56002 7.22402 1.51202 7.69602C1.47202 8.16802 1.45202 8.58402 1.45202 8.94402C1.45202 9.04802 1.45202 9.14802 1.45202 9.24402C1.46002 9.33202 1.46802 9.41602 1.47602 9.49602C1.54002 10 1.62802 10.352 1.74002 10.552C1.85202 10.76 1.98002 10.864 2.12402 10.864C2.28402 10.864 2.44802 10.776 2.61602 10.6C2.79202 10.424 2.96402 10.204 3.13202 9.94002C3.30002 9.67602 3.45202 9.41202 3.58802 9.14802C3.77202 8.80402 3.94002 8.40002 4.09202 7.93602C4.24402 7.47202 4.38002 7.00002 4.50002 6.52002C4.62802 6.04002 4.72802 5.60002 4.80002 5.20002C4.72002 5.06402 4.67202 4.92402 4.65602 4.78002C4.64002 4.63602 4.63202 4.45202 4.63202 4.22802C4.63202 3.98802 4.67602 3.80002 4.76402 3.66402C4.85202 3.52802 4.94402 3.46002 5.04002 3.46002C5.18402 3.46002 5.28002 3.58002 5.32802 3.82002C5.41602 4.22002 5.50402 4.64402 5.59202 5.09202C5.68002 5.53202 5.77602 5.96402 5.88002 6.38802C5.99202 6.81202 6.12002 7.20402 6.26402 7.56402C6.56002 8.27602 6.83202 8.78802 7.08002 9.10002C7.32802 9.40402 7.55602 9.55602 7.76402 9.55602C7.98002 9.55602 8.16802 9.42002 8.32802 9.14802C8.49602 8.86802 8.63602 8.50402 8.74802 8.05602C8.86002 7.60002 8.94402 7.10802 9.00002 6.58002C9.05602 6.04402 9.08402 5.52002 9.08402 5.00802C9.08402 4.58402 9.06402 4.18802 9.02402 3.82002C8.99202 3.45202 8.93202 3.15202 8.84402 2.92002C8.81202 2.82402 8.78802 2.72402 8.77202 2.62002C8.75602 2.51602 8.74802 2.42002 8.74802 2.33202C8.74802 2.22002 8.76002 2.12402 8.78402 2.04402C8.81602 1.96402 8.86002 1.92402 8.91602 1.92402C8.98002 1.92402 9.04402 1.97202 9.10802 2.06802C9.19602 2.18002 9.27602 2.33602 9.34802 2.53602C9.42802 2.72802 9.49602 2.89602 9.55202 3.04002C9.61602 3.20002 9.70002 3.39602 9.80402 3.62802C9.90802 3.85202 10.016 4.06002 10.128 4.25202C10.248 4.43602 10.364 4.54802 10.476 4.58802C10.492 4.59602 10.5 4.61202 10.5 4.63602C10.5 4.68402 10.464 4.72402 10.392 4.75602C10.32 4.78802 10.268 4.80002 10.236 4.79202C10.052 4.70402 9.89602 4.61202 9.76802 4.51602C9.64802 4.41202 9.50802 4.22402 9.34802 3.95202C9.35602 4.09602 9.36002 4.24402 9.36002 4.39602C9.36002 4.54002 9.36002 4.68402 9.36002 4.82802C9.36002 5.24402 9.34402 5.66002 9.31202 6.07602C9.28802 6.49202 9.23602 6.91202 9.15602 7.33602C8.98002 8.25602 8.75602 8.91202 8.48402 9.30402C8.22002 9.69602 7.94002 9.89202 7.64402 9.89202C7.40402 9.89202 7.16402 9.78802 6.92402 9.58002C6.69202 9.36402 6.47602 9.08002 6.27602 8.72802C6.07602 8.37602 5.90402 7.98402 5.76002 7.55202C5.63202 7.13602 5.52402 6.75602 5.43602 6.41202C5.34802 6.06002 5.28002 5.75202 5.23202 5.48802C5.10402 6.06402 4.93602 6.63602 4.72802 7.20402C4.52802 7.77202 4.30402 8.30802 4.05602 8.81202C3.80802 9.30802 3.54802 9.74802 3.27602 10.132C3.01202 10.516 2.74802 10.816 2.48402 11.032C2.22802 11.256 1.99202 11.368 1.77602 11.368Z" fill="white"/>
<path d="M11.0363 10.156C10.7483 10.156 10.4963 9.98802 10.2803 9.65202C10.0723 9.30802 9.96827 8.76802 9.96827 8.03202C9.96827 7.55202 10.0283 7.16802 10.1483 6.88002C10.2683 6.58402 10.4163 6.36802 10.5923 6.23202C10.7683 6.09602 10.9363 6.02802 11.0963 6.02802C11.2563 6.02802 11.3923 6.08402 11.5043 6.19602C11.6163 6.30002 11.6723 6.45202 11.6723 6.65202C11.6723 6.84402 11.6163 7.04802 11.5043 7.26402C11.3923 7.47202 11.2563 7.66402 11.0963 7.84002C10.9443 8.00802 10.7923 8.12002 10.6403 8.17602C10.6083 8.19202 10.5683 8.20002 10.5203 8.20002C10.4883 8.20002 10.4723 8.18802 10.4723 8.16402C10.4723 8.10002 10.5363 8.02802 10.6643 7.94802C10.8243 7.83602 10.9763 7.66802 11.1203 7.44402C11.2643 7.21202 11.3363 7.00802 11.3363 6.83202C11.3363 6.72802 11.3123 6.64802 11.2643 6.59202C11.2163 6.52802 11.1603 6.49602 11.0963 6.49602C10.9763 6.49602 10.8443 6.59202 10.7003 6.78402C10.5643 6.96802 10.4643 7.28802 10.4003 7.74402C10.3843 7.87202 10.3683 7.99602 10.3523 8.11602C10.3443 8.22802 10.3403 8.34002 10.3403 8.45202C10.3403 8.90002 10.4083 9.25202 10.5443 9.50802C10.6803 9.75602 10.8603 9.88002 11.0843 9.88002C11.2763 9.88002 11.4923 9.76802 11.7323 9.54402C11.9723 9.31202 12.2083 8.95202 12.4403 8.46402C12.4963 8.33602 12.5603 8.27202 12.6323 8.27202C12.6803 8.27202 12.7043 8.30402 12.7043 8.36802C12.7043 8.42402 12.6883 8.48402 12.6563 8.54802C12.4483 9.06002 12.1963 9.45602 11.9003 9.73602C11.6043 10.016 11.3163 10.156 11.0363 10.156Z" fill="white"/>
<path d="M14.1832 11.908C14.0792 11.908 13.9792 11.868 13.8832 11.788C13.7952 11.708 13.7192 11.628 13.6552 11.548C13.3992 11.252 13.1832 10.86 13.0072 10.372C12.8392 9.88402 12.7112 9.34802 12.6232 8.76402C12.5352 8.17202 12.4912 7.57202 12.4912 6.96402C12.4912 6.39602 12.5272 5.84402 12.5992 5.30802C12.6792 4.77202 12.7992 4.28402 12.9592 3.84402C13.1192 3.40402 13.3192 3.05202 13.5592 2.78802C13.8712 2.43602 14.1712 2.26002 14.4592 2.26002C14.6352 2.26002 14.7752 2.34002 14.8792 2.50002C14.9912 2.65202 15.0472 2.89602 15.0472 3.23202C15.0472 3.55202 14.9832 3.96002 14.8552 4.45602C14.7352 4.94402 14.5272 5.52802 14.2312 6.20802C14.1272 6.43202 14.0152 6.65602 13.8952 6.88002C13.7832 7.10402 13.6632 7.34002 13.5352 7.58802C13.4872 7.68402 13.4472 7.73202 13.4152 7.73202C13.3992 7.73202 13.3912 7.71602 13.3912 7.68402C13.3912 7.62002 13.4192 7.53602 13.4752 7.43202C14.2032 6.06402 14.5672 4.70402 14.5672 3.35202C14.5672 2.81602 14.4552 2.54802 14.2312 2.54802C14.0712 2.54802 13.8832 2.70402 13.6672 3.01602C13.3712 3.45602 13.1672 3.98002 13.0552 4.58802C12.9432 5.18802 12.8872 5.79602 12.8872 6.41202C12.8872 6.87602 12.9072 7.32802 12.9472 7.76802C12.9872 8.20002 13.0352 8.59202 13.0912 8.94402C13.1152 9.09602 13.1512 9.30002 13.1992 9.55602C13.2472 9.81202 13.3112 10.08 13.3912 10.36C13.4712 10.648 13.5592 10.908 13.6552 11.14C13.7592 11.38 13.8712 11.552 13.9912 11.656C14.0232 11.68 14.0552 11.704 14.0872 11.728C14.1272 11.76 14.1712 11.78 14.2192 11.788C14.2912 11.788 14.3272 11.808 14.3272 11.848C14.3272 11.888 14.2792 11.908 14.1832 11.908Z" fill="white"/>
<path d="M16.1988 11.908C16.0948 11.908 15.9948 11.868 15.8988 11.788C15.8108 11.708 15.7348 11.628 15.6708 11.548C15.4148 11.252 15.1988 10.86 15.0228 10.372C14.8548 9.88402 14.7268 9.34802 14.6388 8.76402C14.5508 8.17202 14.5068 7.57202 14.5068 6.96402C14.5068 6.39602 14.5428 5.84402 14.6148 5.30802C14.6948 4.77202 14.8148 4.28402 14.9748 3.84402C15.1348 3.40402 15.3348 3.05202 15.5748 2.78802C15.8868 2.43602 16.1868 2.26002 16.4748 2.26002C16.6508 2.26002 16.7908 2.34002 16.8948 2.50002C17.0068 2.65202 17.0628 2.89602 17.0628 3.23202C17.0628 3.55202 16.9988 3.96002 16.8708 4.45602C16.7508 4.94402 16.5428 5.52802 16.2468 6.20802C16.1428 6.43202 16.0308 6.65602 15.9108 6.88002C15.7988 7.10402 15.6788 7.34002 15.5508 7.58802C15.5028 7.68402 15.4628 7.73202 15.4308 7.73202C15.4148 7.73202 15.4068 7.71602 15.4068 7.68402C15.4068 7.62002 15.4348 7.53602 15.4908 7.43202C16.2188 6.06402 16.5828 4.70402 16.5828 3.35202C16.5828 2.81602 16.4708 2.54802 16.2468 2.54802C16.0868 2.54802 15.8988 2.70402 15.6828 3.01602C15.3868 3.45602 15.1828 3.98002 15.0708 4.58802C14.9588 5.18802 14.9028 5.79602 14.9028 6.41202C14.9028 6.87602 14.9228 7.32802 14.9628 7.76802C15.0028 8.20002 15.0508 8.59202 15.1068 8.94402C15.1308 9.09602 15.1668 9.30002 15.2148 9.55602C15.2628 9.81202 15.3268 10.08 15.4068 10.36C15.4868 10.648 15.5748 10.908 15.6708 11.14C15.7748 11.38 15.8868 11.552 16.0068 11.656C16.0388 11.68 16.0708 11.704 16.1028 11.728C16.1428 11.76 16.1868 11.78 16.2348 11.788C16.3068 11.788 16.3428 11.808 16.3428 11.848C16.3428 11.888 16.2948 11.908 16.1988 11.908Z" fill="white"/>
<path d="M16.9664 10.24C16.7664 10.24 16.5904 10.168 16.4384 10.024C16.2944 9.88802 16.2224 9.65202 16.2224 9.31602C16.2224 9.14002 16.2584 8.92402 16.3304 8.66802C16.4024 8.40402 16.4984 8.12802 16.6184 7.84002C16.7464 7.55202 16.8904 7.28402 17.0504 7.03602C17.2104 6.78802 17.3784 6.58402 17.5544 6.42402C17.7304 6.26402 17.9024 6.18402 18.0704 6.18402C18.2064 6.18402 18.3024 6.23202 18.3584 6.32802C18.4224 6.42402 18.4544 6.52802 18.4544 6.64002C18.4544 6.73602 18.4344 6.82402 18.3944 6.90402C18.3624 6.97602 18.3144 7.01202 18.2504 7.01202C18.1864 7.01202 18.1384 6.98402 18.1064 6.92802C18.0824 6.86402 18.0584 6.80402 18.0344 6.74802C18.0184 6.68402 17.9744 6.65202 17.9024 6.65202C17.7584 6.65202 17.6144 6.74802 17.4704 6.94002C17.3264 7.12402 17.1944 7.36002 17.0744 7.64802C16.9544 7.93602 16.8584 8.23202 16.7864 8.53602C16.7144 8.84002 16.6784 9.10802 16.6784 9.34002C16.6784 9.54002 16.7024 9.68802 16.7504 9.78402C16.8064 9.87202 16.9064 9.91602 17.0504 9.91602C17.2344 9.91602 17.4104 9.86402 17.5784 9.76002C17.7544 9.64802 17.9144 9.51202 18.0584 9.35202C18.2024 9.19202 18.3224 9.04002 18.4184 8.89602C18.5224 8.75202 18.5944 8.64402 18.6344 8.57202C18.7304 8.38802 18.8064 8.29602 18.8624 8.29602C18.8864 8.29602 18.8984 8.32802 18.8984 8.39202C18.8984 8.47202 18.8824 8.55202 18.8504 8.63202C18.8184 8.70402 18.7864 8.77202 18.7544 8.83602C18.6424 9.07602 18.4904 9.30402 18.2984 9.52002C18.1064 9.72802 17.8944 9.90002 17.6624 10.036C17.4384 10.172 17.2064 10.24 16.9664 10.24Z" fill="white"/>
<path d="M19.5418 10.228C19.3258 10.228 19.1298 10.152 18.9538 10C18.8258 9.88802 18.7338 9.75602 18.6778 9.60402C18.6218 9.45202 18.5938 9.28802 18.5938 9.11202C18.5938 8.97602 18.6058 8.84002 18.6298 8.70402C18.6618 8.56002 18.6978 8.42402 18.7378 8.29602C18.7938 8.12002 18.8658 7.96002 18.9538 7.81602C19.0418 7.67202 19.1178 7.56002 19.1818 7.48002C19.2218 7.29602 19.2978 7.08002 19.4098 6.83202C19.5218 6.58402 19.6578 6.34402 19.8178 6.11202C19.9858 5.88002 20.1738 5.68802 20.3818 5.53602C20.5898 5.37602 20.8058 5.29602 21.0298 5.29602C21.2938 5.29602 21.5218 5.41602 21.7138 5.65602C21.9138 5.88802 22.0298 6.23202 22.0618 6.68802C22.0618 6.72002 22.0618 6.75202 22.0618 6.78402C22.0698 6.81602 22.0738 6.85202 22.0738 6.89202C22.0738 7.34802 21.9618 7.80402 21.7378 8.26002C21.5218 8.70802 21.2618 9.09202 20.9578 9.41202C20.7818 9.60402 20.5658 9.78802 20.3098 9.96402C20.0538 10.14 19.7978 10.228 19.5418 10.228ZM19.6018 9.97602C19.8178 9.97602 20.0498 9.87602 20.2978 9.67602C20.5778 9.45202 20.8178 9.16802 21.0178 8.82402C21.2178 8.48002 21.3738 8.11602 21.4858 7.73202C21.6058 7.34002 21.6778 6.96002 21.7018 6.59202C21.7178 6.38402 21.6898 6.18402 21.6178 5.99202C21.5458 5.80002 21.3938 5.67602 21.1618 5.62002C21.0978 5.60402 21.0458 5.59602 21.0058 5.59602C20.8538 5.59602 20.6978 5.64402 20.5378 5.74002C20.3858 5.83602 20.2458 5.95602 20.1178 6.10002C19.9978 6.24402 19.9018 6.38802 19.8298 6.53202C19.7658 6.66802 19.7378 6.78002 19.7458 6.86802C19.7938 6.82002 19.8738 6.75202 19.9858 6.66402C20.1058 6.56802 20.2378 6.48002 20.3818 6.40002C20.5258 6.32002 20.6498 6.28002 20.7538 6.28002C20.8338 6.28002 20.8898 6.30402 20.9218 6.35202C20.9458 6.36802 20.9498 6.40002 20.9338 6.44802C20.8298 6.41602 20.7098 6.43602 20.5738 6.50802C20.4458 6.58002 20.3138 6.68002 20.1778 6.80802C20.0498 6.93602 19.9338 7.06402 19.8298 7.19202C19.7258 7.32002 19.6498 7.42002 19.6018 7.49202C19.5698 7.52402 19.5338 7.56402 19.4938 7.61202C19.4618 7.66002 19.4418 7.71202 19.4338 7.76802C19.4258 7.78402 19.4218 7.82002 19.4218 7.87602C19.4218 7.98002 19.4538 8.10802 19.5178 8.26002C19.5898 8.41202 19.7178 8.54802 19.9018 8.66802C20.0858 8.78802 20.3418 8.85602 20.6698 8.87202C20.6778 8.88002 20.6818 8.88802 20.6818 8.89602C20.6818 8.92802 20.6498 8.95202 20.5858 8.96802C20.5298 8.97602 20.4938 8.98002 20.4778 8.98002C20.4538 8.98802 20.4298 8.99202 20.4058 8.99202C20.3818 8.99202 20.3578 8.99202 20.3338 8.99202C20.0618 8.99202 19.8378 8.89202 19.6618 8.69202C19.4858 8.48402 19.3538 8.25602 19.2658 8.00802C19.0658 8.44002 18.9658 8.82002 18.9658 9.14802C18.9658 9.41202 19.0258 9.61602 19.1458 9.76002C19.2658 9.90402 19.4178 9.97602 19.6018 9.97602Z" fill="white"/>
<path d="M25.5573 12.1C25.3813 12.1 25.2453 12.024 25.1493 11.872C25.0613 11.72 25.0173 11.544 25.0173 11.344C25.0173 11.104 25.0613 10.828 25.1493 10.516C25.2373 10.212 25.3493 9.90002 25.4853 9.58002C25.6213 9.25202 25.7613 8.93602 25.9053 8.63202C26.0573 8.32802 26.1893 8.05602 26.3013 7.81602C26.4213 7.57602 26.5013 7.39202 26.5413 7.26402C26.5893 7.12002 26.6133 7.01202 26.6133 6.94002C26.6133 6.86002 26.5853 6.82002 26.5293 6.82002C26.4653 6.82002 26.3693 6.87202 26.2413 6.97602C26.1213 7.07202 26.0053 7.18002 25.8933 7.30002C25.7813 7.42002 25.7013 7.50802 25.6533 7.56402C25.3893 7.85202 25.1573 8.17202 24.9573 8.52402C24.7573 8.87602 24.6293 9.17602 24.5733 9.42402C24.5653 9.46402 24.5533 9.53602 24.5373 9.64002C24.5213 9.73602 24.4853 9.78402 24.4293 9.78402C24.3733 9.78402 24.3293 9.75602 24.2973 9.70002C24.2733 9.64402 24.2573 9.58402 24.2493 9.52002C24.2413 9.48002 24.2333 9.40402 24.2253 9.29202C24.2253 9.17202 24.2253 9.08402 24.2253 9.02802C24.2253 8.68402 24.2613 8.34002 24.3333 7.99602C24.4053 7.64402 24.4853 7.30802 24.5733 6.98802C24.6693 6.66002 24.7533 6.36002 24.8253 6.08802C24.8973 5.81602 24.9333 5.58402 24.9333 5.39202C24.9333 5.26402 24.9093 5.16002 24.8613 5.08002C24.8213 4.99202 24.7693 4.94802 24.7053 4.94802C24.6093 4.94802 24.4973 5.02802 24.3693 5.18802C24.2493 5.34802 24.1253 5.56402 23.9973 5.83602C23.8693 6.10802 23.7493 6.40802 23.6373 6.73602C23.5333 7.06402 23.4453 7.39602 23.3733 7.73202C23.3093 8.06802 23.2773 8.38402 23.2773 8.68002C23.2773 8.84802 23.2893 9.02002 23.3133 9.19602C23.3453 9.37202 23.3613 9.52802 23.3613 9.66402C23.3613 9.76802 23.3453 9.84402 23.3133 9.89202C23.2893 9.94002 23.2253 9.96402 23.1213 9.96402C22.9293 9.96402 22.8093 9.77602 22.7613 9.40002C22.7053 9.07202 22.6453 8.70002 22.5813 8.28402C22.5253 7.86802 22.4533 7.50002 22.3653 7.18002C22.3413 7.09202 22.3133 7.00002 22.2813 6.90402C22.2493 6.80802 22.1893 6.72002 22.1013 6.64002C22.0933 6.62402 22.0733 6.60802 22.0413 6.59202C22.0093 6.57602 21.9933 6.56002 21.9933 6.54402C21.9933 6.51202 22.0373 6.49602 22.1253 6.49602C22.2453 6.49602 22.3573 6.56402 22.4613 6.70002C22.5653 6.82802 22.6573 6.98802 22.7373 7.18002C22.8173 7.37202 22.8853 7.56402 22.9413 7.75602C23.0053 7.94002 23.0533 8.08802 23.0853 8.20002C23.1573 7.76002 23.2373 7.36002 23.3253 7.00002C23.4133 6.63202 23.5253 6.27602 23.6613 5.93202C23.7573 5.70002 23.8693 5.47602 23.9973 5.26002C24.1253 5.04402 24.2693 4.86802 24.4293 4.73202C24.5893 4.58802 24.7573 4.51602 24.9333 4.51602C25.0453 4.51602 25.1773 4.57602 25.3293 4.69602C25.4893 4.81602 25.5693 5.00802 25.5693 5.27202C25.5693 5.39202 25.5373 5.53602 25.4733 5.70402C25.4173 5.86402 25.3533 6.04402 25.2813 6.24402C25.1773 6.52402 25.0653 6.84002 24.9453 7.19202C24.8253 7.53602 24.7213 7.85202 24.6333 8.14002C24.5453 8.42802 24.4933 8.62802 24.4773 8.74002C24.4613 8.86802 24.4493 8.97602 24.4413 9.06402C24.4413 9.14402 24.4413 9.22002 24.4413 9.29202C24.4893 9.08402 24.5933 8.84402 24.7533 8.57202C24.9213 8.29202 25.0733 8.05602 25.2093 7.86402C25.3613 7.64802 25.5213 7.44402 25.6893 7.25202C25.8653 7.05202 26.0453 6.89202 26.2293 6.77202C26.4213 6.64402 26.6093 6.58002 26.7933 6.58002C26.8813 6.58002 26.9573 6.60402 27.0213 6.65202C27.0853 6.70002 27.1173 6.79202 27.1173 6.92802C27.1173 7.11202 27.0573 7.32402 26.9373 7.56402C26.8253 7.79602 26.6853 8.03602 26.5173 8.28402C26.3573 8.52402 26.2093 8.76002 26.0733 8.99202C25.8973 9.29602 25.7333 9.62402 25.5813 9.97602C25.4373 10.32 25.3653 10.676 25.3653 11.044C25.3653 11.348 25.4013 11.568 25.4733 11.704C25.5533 11.84 25.6373 11.908 25.7253 11.908C25.7813 11.908 25.8373 11.888 25.8933 11.848C25.9573 11.808 26.0093 11.772 26.0493 11.74C26.0653 11.724 26.0893 11.7 26.1213 11.668C26.1533 11.644 26.1813 11.632 26.2053 11.632C26.2373 11.632 26.2413 11.664 26.2173 11.728C26.2093 11.76 26.1853 11.792 26.1453 11.824C26.1053 11.864 26.0773 11.892 26.0613 11.908C25.9093 12.036 25.7413 12.1 25.5573 12.1Z" fill="white"/>
<path d="M28.1925 10.156C27.9045 10.156 27.6525 9.98802 27.4365 9.65202C27.2285 9.30802 27.1245 8.76802 27.1245 8.03202C27.1245 7.55202 27.1845 7.16802 27.3045 6.88002C27.4245 6.58402 27.5725 6.36802 27.7485 6.23202C27.9245 6.09602 28.0925 6.02802 28.2525 6.02802C28.4125 6.02802 28.5485 6.08402 28.6605 6.19602C28.7725 6.30002 28.8285 6.45202 28.8285 6.65202C28.8285 6.84402 28.7725 7.04802 28.6605 7.26402C28.5485 7.47202 28.4125 7.66402 28.2525 7.84002C28.1005 8.00802 27.9485 8.12002 27.7965 8.17602C27.7645 8.19202 27.7245 8.20002 27.6765 8.20002C27.6445 8.20002 27.6285 8.18802 27.6285 8.16402C27.6285 8.10002 27.6925 8.02802 27.8205 7.94802C27.9805 7.83602 28.1325 7.66802 28.2765 7.44402C28.4205 7.21202 28.4925 7.00802 28.4925 6.83202C28.4925 6.72802 28.4685 6.64802 28.4205 6.59202C28.3725 6.52802 28.3165 6.49602 28.2525 6.49602C28.1325 6.49602 28.0005 6.59202 27.8565 6.78402C27.7205 6.96802 27.6205 7.28802 27.5565 7.74402C27.5405 7.87202 27.5245 7.99602 27.5085 8.11602C27.5005 8.22802 27.4965 8.34002 27.4965 8.45202C27.4965 8.90002 27.5645 9.25202 27.7005 9.50802C27.8365 9.75602 28.0165 9.88002 28.2405 9.88002C28.4325 9.88002 28.6485 9.76802 28.8885 9.54402C29.1285 9.31202 29.3645 8.95202 29.5965 8.46402C29.6525 8.33602 29.7165 8.27202 29.7885 8.27202C29.8365 8.27202 29.8605 8.30402 29.8605 8.36802C29.8605 8.42402 29.8445 8.48402 29.8125 8.54802C29.6045 9.06002 29.3525 9.45602 29.0565 9.73602C28.7605 10.016 28.4725 10.156 28.1925 10.156Z" fill="white"/>
</svg>
