<?xml version="1.0" encoding="UTF-8"?>
<svg id="Livello_2" data-name="Livello 2" xmlns="http://www.w3.org/2000/svg" viewBox="0 0 100 100">
  <defs>
    <style>
      .cls-1 {
        fill: #dadada;
      }

      .cls-2 {
        opacity: .09;
      }

      .cls-3 {
        fill: #fff;
      }

      .cls-4 {
        fill: #bababa;
      }

      .cls-5 {
        fill: #c6c6c6;
      }
    </style>
  </defs>
  <g id="_Ñëîé_1" data-name="Ñëîé 1">
    <g>
      <g>
        <path class="cls-1" d="M100,50c0,.72-.02,1.44-.05,2.15-.16,3.88-.77,7.64-1.77,11.24-.39,1.39-.83,2.75-1.33,4.09-1.34,3.59-3.08,6.99-5.18,10.14-.79,1.2-1.64,2.36-2.53,3.48-2.37,2.98-5.07,5.68-8.05,8.05-1.12.89-2.28,1.74-3.48,2.53-3.15,2.09-6.54,3.83-10.14,5.18-1.34.5-2.7.94-4.09,1.33-3.6,1-7.36,1.6-11.24,1.77-.71.03-1.43.05-2.15.05s-1.44-.02-2.15-.05c-1.38-.06-2.74-.17-4.09-.34-2.44-.3-4.83-.78-7.16-1.43-1.39-.39-2.75-.83-4.09-1.33-.27-.1-.54-.2-.8-.31h0c-1.7-.67-3.36-1.43-4.96-2.27-1.51-.79-2.97-1.66-4.38-2.6-1.2-.79-2.36-1.64-3.48-2.53-2.24-1.79-4.33-3.76-6.24-5.9-.62-.7-1.23-1.42-1.81-2.15-.07-.09-.14-.18-.22-.27-.14-.18-.28-.37-.43-.55-.07-.09-.14-.18-.21-.28-.07-.09-.14-.19-.21-.28-.07-.09-.14-.19-.21-.28-.07-.09-.13-.18-.2-.27,0,0,0,0,0-.01-.07-.09-.13-.18-.19-.27,0,0,0,0,0-.01,0,0-.01-.02-.02-.02-.05-.07-.1-.15-.15-.22-.06-.08-.12-.17-.17-.25-.04-.06-.08-.12-.13-.18-.06-.09-.12-.18-.18-.26-.07-.11-.14-.21-.21-.32-1.54-2.31-2.88-4.76-4.02-7.32-.41-.92-.79-1.86-1.15-2.82-.5-1.34-.94-2.7-1.33-4.09-1-3.6-1.6-7.36-1.77-11.24-.03-.71-.05-1.43-.05-2.15s.02-1.44.05-2.15c.16-3.88.77-7.64,1.77-11.24.39-1.39.83-2.75,1.33-4.09,1.34-3.59,3.08-6.99,5.18-10.14.79-1.2,1.64-2.36,2.53-3.48,2.37-2.98,5.07-5.68,8.05-8.05,1.12-.89,2.28-1.74,3.48-2.53,3.15-2.09,6.54-3.83,10.14-5.18,1.34-.5,2.7-.94,4.09-1.33,3.6-1,7.37-1.6,11.24-1.77.71-.03,1.43-.05,2.15-.05s1.44.02,2.15.05c.53.02,1.07.05,1.6.09,3.32.25,6.54.81,9.65,1.68.03,0,.06.02.09.02,1.36.38,2.69.82,4,1.3.43.16.86.33,1.28.5,3.12,1.26,6.08,2.83,8.85,4.67,1.2.79,2.36,1.64,3.48,2.53.96.76,1.88,1.55,2.78,2.38,1.34,1.23,2.61,2.54,3.8,3.91.5.57.99,1.16,1.47,1.76.89,1.12,1.74,2.28,2.53,3.48,1.08,1.62,2.07,3.32,2.95,5.07.83,1.64,1.57,3.33,2.22,5.07.5,1.34.94,2.7,1.33,4.09,1,3.6,1.6,7.36,1.77,11.24.03.71.05,1.43.05,2.15Z"/>
        <g>
          <path class="cls-5" d="M52.15.05v.93c0,1.19-.96,2.15-2.15,2.15s-2.15-.96-2.15-2.15V.05c.71-.03,1.43-.05,2.15-.05s1.44.02,2.15.05Z"/>
          <path class="cls-5" d="M35.52,5.42c-1.13.37-2.34-.25-2.71-1.38l-.29-.9c1.34-.5,2.7-.94,4.09-1.33l.29.89c.37,1.13-.25,2.34-1.38,2.71Z"/>
          <path class="cls-5" d="M22.45,12.08c-.96.7-2.31.49-3-.48l-.55-.75c1.12-.89,2.28-1.74,3.48-2.53l.55.76c.7.96.49,2.31-.48,3Z"/>
          <path class="cls-5" d="M12.08,22.45c-.7.96-2.04,1.17-3,.48l-.76-.55c.79-1.2,1.64-2.36,2.53-3.48l.75.55c.96.7,1.17,2.04.48,3Z"/>
          <path class="cls-5" d="M5.42,35.52c-.37,1.13-1.58,1.75-2.71,1.38l-.89-.29c.39-1.39.83-2.75,1.33-4.09l.9.29c1.13.37,1.75,1.58,1.38,2.71Z"/>
          <path class="cls-5" d="M3.13,50c0,1.19-.96,2.15-2.15,2.15H.05c-.03-.71-.05-1.43-.05-2.15s.02-1.44.05-2.15h.93c1.19,0,2.15.96,2.15,2.15Z"/>
          <path class="cls-5" d="M4.04,67.2l-.9.29c-.5-1.34-.94-2.7-1.33-4.09l.89-.29c1.13-.37,2.34.25,2.71,1.38.37,1.13-.25,2.34-1.38,2.71Z"/>
          <path class="cls-5" d="M11.6,80.56l-.75.55c-.07-.09-.14-.18-.22-.27-.14-.18-.29-.37-.43-.55-.07-.09-.14-.18-.21-.28-.07-.09-.14-.19-.21-.28-.07-.09-.14-.19-.21-.28-.07-.09-.13-.18-.2-.27,0,0,0,0,0-.01-.07-.09-.13-.18-.19-.27,0,0,0,0,0-.01,0,0-.01-.02-.02-.02-.05-.07-.1-.15-.15-.22-.06-.08-.12-.17-.17-.25-.04-.06-.08-.12-.13-.18-.06-.09-.12-.18-.18-.26-.07-.11-.14-.21-.21-.32l.76-.55c.49-.36,1.09-.48,1.64-.38.53.09,1.02.39,1.36.85.7.96.49,2.31-.48,3Z"/>
          <path class="cls-5" d="M22.92,90.93l-.55.76c-1.2-.79-2.36-1.64-3.48-2.53l.55-.75c.7-.96,2.04-1.17,3-.48.96.7,1.17,2.04.48,3Z"/>
          <path class="cls-5" d="M36.9,97.29l-.29.89c-1.39-.39-2.75-.83-4.09-1.33l.29-.9c.37-1.13,1.58-1.75,2.71-1.38,1.13.37,1.75,1.58,1.38,2.71Z"/>
          <path class="cls-5" d="M52.15,99.03v.93c-.71.03-1.43.05-2.15.05s-1.44-.02-2.15-.05v-.93c0-1.19.96-2.15,2.15-2.15s2.15.96,2.15,2.15Z"/>
          <path class="cls-5" d="M67.49,96.86c-1.34.5-2.7.94-4.09,1.33l-.29-.89c-.37-1.13.25-2.34,1.38-2.71,1.13-.37,2.34.25,2.71,1.38l.29.9Z"/>
          <path class="cls-5" d="M81.1,89.15c-1.12.89-2.28,1.74-3.48,2.53l-.55-.76c-.7-.96-.49-2.31.48-3,.96-.7,2.31-.49,3,.48l.55.75Z"/>
          <path class="cls-5" d="M91.68,77.62c-.79,1.2-1.64,2.36-2.53,3.48l-.75-.55c-.96-.7-1.17-2.04-.48-3,.7-.96,2.04-1.17,3-.48l.76.55Z"/>
          <path class="cls-5" d="M98.19,63.39c-.39,1.39-.83,2.75-1.33,4.09l-.9-.29c-1.13-.37-1.75-1.58-1.38-2.71.37-1.13,1.58-1.75,2.71-1.38l.89.29Z"/>
          <path class="cls-5" d="M100,50c0,.72-.02,1.44-.05,2.15h-.93c-1.19,0-2.15-.96-2.15-2.15s.96-2.15,2.15-2.15h.93c.03.71.05,1.43.05,2.15Z"/>
          <path class="cls-5" d="M98.19,36.61l-.89.29c-1.13.37-2.34-.25-2.71-1.38-.37-1.13.25-2.34,1.38-2.71l.9-.29c.5,1.34.94,2.7,1.33,4.09Z"/>
          <path class="cls-5" d="M91.68,22.38l-.76.55c-.96.7-2.31.49-3-.48-.7-.96-.49-2.31.48-3l.75-.55c.89,1.12,1.74,2.28,2.53,3.48Z"/>
          <path class="cls-5" d="M81.1,10.85l-.55.75c-.7.96-2.04,1.17-3,.48-.96-.7-1.17-2.04-.48-3l.55-.76c1.2.79,2.36,1.64,3.48,2.53Z"/>
          <path class="cls-5" d="M67.49,3.14l-.29.9c-.37,1.13-1.58,1.75-2.71,1.38-1.13-.37-1.75-1.58-1.38-2.71l.2-.61.09-.28s.06.02.09.02c1.36.38,2.69.82,4,1.3Z"/>
        </g>
        <g>
          <path class="cls-4" d="M91.13,50c0,22.68-18.45,41.13-41.13,41.13-10.81,0-20.66-4.19-28.01-11.04-8.06-7.51-13.11-18.22-13.11-30.09,0-22.68,18.45-41.13,41.13-41.13,11.86,0,22.57,5.05,30.09,13.11,6.85,7.35,11.04,17.2,11.04,28.01Z"/>
          <path class="cls-5" d="M91.13,50c0,22.68-18.45,41.13-41.13,41.13-10.81,0-20.66-4.19-28.01-11.04-6.85-7.35-11.04-17.2-11.04-28.01,0-22.68,18.45-41.13,41.13-41.13,10.81,0,20.66,4.19,28.01,11.04,6.85,7.35,11.04,17.2,11.04,28.01Z"/>
        </g>
      </g>
      <g class="cls-2">
        <path class="cls-3" d="M63.48,1.84l-.18.26-5.33,7.56-1.11,1.57-5.41,7.67-.73,1.04-1.35,1.91-1.04,1.47-.64.9-.96,1.37-11.04,15.67-.62.88-19.87,28.18-.53.75-3.97,5.63-1.54,2.18s-.01-.02-.02-.02c-.05-.07-.1-.15-.15-.22-.06-.08-.12-.17-.17-.25-.04-.06-.08-.12-.13-.18-.06-.09-.12-.18-.18-.26-.07-.11-.14-.21-.21-.32-1.54-2.31-2.88-4.76-4.02-7.32l6.21-8.81h0s1.17-1.66,1.17-1.66L45.79,11.43l1.75-2.48L53.75.14c3.32.25,6.54.81,9.65,1.68.03,0,.06.02.09.02Z"/>
        <path class="cls-3" d="M94.63,27.44l-5.99,8.49-22.01,31.23-4.58,6.49h0s-12.31,17.47-12.31,17.47l-5.98,8.49c-2.44-.3-4.83-.78-7.16-1.43-1.39-.39-2.75-.83-4.09-1.33-.27-.1-.54-.2-.8-.31l5.3-7.52,8.96-12.71.5-.71,2.75-3.91.16-.22,2.61-3.71,1.04-1.47,6.28-8.91.29-.41,3.81-5.41.04-.05,18.93-26.85,5.31-7.53c.5.57.99,1.16,1.47,1.76.89,1.12,1.74,2.28,2.53,3.48,1.08,1.62,2.07,3.32,2.95,5.07Z"/>
        <path class="cls-3" d="M83.88,13.23l-5.18,7.34-.08.11-19.66,27.89-.34.49-3.2,4.54-.34.49-2.04,2.9-1.04,1.47-2.61,3.71-1.04,1.47-3.95,5.61-.11.16-3.15,4.47-.22.31-8.99,12.75-5.17,7.34c-1.51-.79-2.97-1.66-4.38-2.6-1.2-.79-2.36-1.64-3.48-2.53-2.24-1.79-4.33-3.76-6.24-5.9l5.29-7.51.26-.36,19.97-28.33.02-.03,3.77-5.35.45-.64h0s5.93-8.41,5.93-8.41l1.04-1.47,4.17-5.92.58-.82,8.52-12.08.83-1.18,5.29-7.5c3.12,1.26,6.08,2.83,8.85,4.67,1.2.79,2.36,1.64,3.48,2.53.96.76,1.88,1.55,2.78,2.38Z"/>
      </g>
    </g>
  </g>
</svg>